<?xml version="1.0" encoding="UTF-8" standalone="no"?>
<!-- Created with Inkscape (http://www.inkscape.org/) -->

<svg
   width="400"
   height="80"
   viewBox="0 0 97 25"
   version="1.1"
   id="svg5"
   xmlns="http://www.w3.org/2000/svg"
   xmlns:svg="http://www.w3.org/2000/svg">
  <defs
     id="defs2" />
  <g
     id="layer1">
    <g
       id="g75"
       transform="matrix(0.26458333,0,0,0.26458333,81.350371,79.746893)">
      <path
         fill-rule="evenodd"
         fill-opacity="0"
         fill="#ffffff"
         d="m -304.38786,-297.68624 h 422.53558 v 75.09061 h -422.53558 z"
         id="path39"
         style="stroke-width:2.4145" />
      <path
         fill-rule="evenodd"
         opacity="0"
         fill="#ffffff"
         d="m -303.20718,-297.46411 h 77.20813 v 77.20571 h -77.20813 z"
         id="path41"
         style="stroke-width:2.4145" />
      <path
         fill-rule="evenodd"
         fill="#482773"
         d="m -300.85788,-282.21419 36.20527,-15.01571 36.30185,15.01571 -0.24629,16.44266 -8.95051,31.97509 -27.10505,13.28693 -26.91189,-13.28693 -9.04951,-32.09339 z"
         id="path43"
         style="stroke-width:2.4145" />
      <path
         fill-rule="evenodd"
         fill="#ffffff"
         d="m -236.96326,-265.50111 -7.59356,24.43705 -16.28332,7.16621 v -51.32963 l 9.57827,3.53482 v 33.5638 l 5.99761,-20.3155 z"
         id="path45"
         style="stroke-width:2.4145" />
      <path
         fill-rule="evenodd"
         fill="#b8abc9"
         d="m -244.96245,-279.29267 8.3324,3.50584 -0.34044,10.32919 -8.29377,-2.90462 z"
         id="path47"
         style="stroke-width:2.4145" />
      <path
         fill-rule="evenodd"
         fill="#b8abc9"
         d="m -291.94118,-275.76268 25.13968,12.42256 -0.01,19.14689 -0.0966,10.39196 -9.68451,-4.41611 -0.21248,-19.92195 -15.13643,-7.10101 z"
         id="path49"
         style="stroke-width:2.4145" />
      <path
         fill-rule="evenodd"
         fill="#ffffff"
         d="m -291.94359,-275.74336 25.1614,-9.47445 v 10.49094 l -25.1614,9.47204 z"
         id="path51"
         style="stroke-width:2.4145" />
      <path
         fill-rule="evenodd"
         fill="#ffffff"
         d="m -287.70857,-243.20571 20.86844,9.39478 v -10.49578 l -23.07287,-9.40685 z"
         id="path53"
         style="stroke-width:2.4145" />
      <text
         kerning="auto"
         font-family="'Myriad Pro'"
         fill="#000000"
         font-size="62.7766px"
         x="-210.22279"
         y="-235.66521"
         id="text57"
         style="stroke-width:2.4145"><tspan
           font-size="62.7766px"
           font-family="Montserrat"
           font-weight="bold"
           fill="#482773"
           id="tspan55"
           style="stroke-width:10.2094">SaviVault</tspan></text>
    </g>
  </g>
</svg>
